<svg id="Capa_1" data-name="Capa 1" xmlns="http://www.w3.org/2000/svg" viewBox="0 0 1001 335"><defs><style>.cls-1{stroke:#000;stroke-miterlimit:10;}.cls-2{fill:#fefefe;}.cls-3{fill:#21724c;}.cls-4{fill:#f48635;}.cls-5{fill:#fcfdfc;}</style></defs><title>BuhoVector</title><rect class="cls-1" x="0.5" y="0.5" width="1000" height="334"/><path class="cls-2" d="M493.76,185.46l58.43-79.25c-39.32,10.29-77.76,10.18-116.8.12C455.06,133,474.32,159.09,493.76,185.46ZM305.2,107.85c-.67-.25-1.57-.6-2.48-.91L209.89,75.77c-11.92-4-23.84-8-35.79-12-4.26-1.41-7.67.3-8.57,4.14-.66,2.87,1.06,5.41,5.09,7.35L300.11,137.5c.64.3,1.34.49,2,.73,0-5.24-.39-10.28.12-15.22S304.13,113,305.2,107.85Zm380,30.71c1.29-.59,2.09-.93,2.87-1.31l100.29-48.2c9.75-4.69,19.52-9.35,29.25-14.08,4-2,5.5-5.09,4.09-8.3s-4.41-4.12-8.57-2.77c-.28.09-.57.15-.85.25l-121.93,41L682,107.93C685.34,117.86,686.76,127.79,685.15,138.56Z"/><path class="cls-3" d="M871,36.21c-1.72,3.59-4.68,5.42-8.42,6.67q-96.65,32.34-193.23,64.84c-.83.28-1.64.6-2.81,1l2.31,5.61,8.37-1.56,1.45,5.22-8.07,2.76c.24,1.95.48,3.86.75,6l8.41.55v5.53l-8.35.44-.86,6,8.09,2.84-1.38,5.23-8.35-1.58c-.78,1.8-1.51,3.49-2.37,5.46l7.1,4.88-2.75,4.68-7.63-3.75-3.72,4.78c1.9,2.16,3.72,4.21,5.62,6.35L661,171.87l-6.12-5.34-4.81,3.65,3.76,7.63-4.69,2.8-4.8-7.09-5.53,2.29c.52,2.79,1,5.46,1.57,8.35l-5.23,1.46c-.91-2.64-1.81-5.27-2.7-7.84-.29-.1-.48-.24-.64-.21-5.5.87-5.5.88-5.78,6.65,0,.77-.11,1.54-.18,2.45h-5.54c-.1-1.87-.27-3.71-.29-5.56,0-2-.49-3.42-3-3.18a15.06,15.06,0,0,1-3.22-.44c-.91,2.59-1.83,5.25-2.83,8.11-5.06.27-10.16.61-15.27.77-2,.06-2.67.79-2.78,2.79-.18,3.22-.74,6.42-1.17,9.93l16.71,5.55c-1,3.61-1.88,7.17-2.89,11l-17.33-3.54-4.85,11.62,14.77,9.69-5.7,9.89-15.81-7.89-7.7,9.94,11.6,13-8.52,7.74L559.43,255l-10,7.68,7.93,15.75-9.88,5.75c-3.28-5-6.52-9.86-9.76-14.75l-11.62,4.82,3.55,17.22-11,3.06c-1.88-5.6-3.73-11.12-5.62-16.77l-12.45,1.6c-.36,5.68-.72,11.43-1.09,17.39H488.07c-.35-5.78-.7-11.53-1.06-17.4l-12.47-1.59c-1.86,5.59-3.68,11.06-5.57,16.72l-11-2.93,3.51-17.3-11.62-4.82-9.7,14.73-9.92-5.7,7.92-15.75-10-7.73-13,11.58-8-8.24,11.48-12.85-7.68-10-15.81,7.9-5.73-9.89,14.78-9.67c-1.6-3.84-3.17-7.61-4.84-11.64l-17.28,3.55c-1-3.6-1.93-7.15-3-11l16.79-5.62c-.56-4.17-1.09-8.14-1.66-12.44-5-.3-10-.75-15-.84-2.19,0-3.14-.77-3.58-2.83a53.69,53.69,0,0,0-1.79-5.43l-6,.75c-.16,2.81-.32,5.52-.49,8.39h-5.49c-.22-2.76-.43-5.48-.66-8.36l-5.89-.83-2.84,8.07-5.2-1.35c.51-2.75,1-5.4,1.55-8.35l-5.5-2.37-4.83,7.09-4.73-2.73,3.79-7.66-4.81-3.69-6.37,5.61-3.5-4.34,5.21-5.92-3.66-4.77-7.63,3.68-2.84-4.62,7.1-4.81c-.74-1.79-1.47-3.56-2.27-5.53l-8.37,1.57c-.49-1.74-.95-3.4-1.46-5.22l8.06-2.79c-.26-2-.5-4-.76-6l-8.27-.43v-5.51l8.26-.62c.27-2,.51-3.82.8-5.94L309,118c.45-1.7.89-3.35,1.38-5.23l8.37,1.57,2.39-5.67c-6.13-2.08-12.06-4.1-18-6.09q-89.21-29.94-178.4-59.9a18.76,18.76,0,0,1-4.53-2.06,7.17,7.17,0,0,1-2.83-9.05A7.58,7.58,0,0,1,126,27l72.92,14.75,141.77,28.7c22.57,4.57,45.15,9,67.69,13.78a11.13,11.13,0,0,1,6,3.76c12,15.59,23.8,31.36,35.7,47.05a4.47,4.47,0,0,1,.88,4.74,19.84,19.84,0,0,0,19.1,26.26,5.09,5.09,0,0,1,4.76,2.51c5.6,7.73,11.31,15.38,17,23.06.57.78,1.2,1.52,2,2.54l11.81-16c1.23-1.66,2.53-3.27,3.67-5,2.77-4.18,5.55-7,11.52-7.65,12.69-1.41,19.5-14,15.55-26.33a4.29,4.29,0,0,1,.56-3.35q18.17-24.23,36.59-48.24a10.21,10.21,0,0,1,5.63-3.33q56-11.49,112-22.71,66.26-13.39,132.51-26.84c12-2.44,24.1-4.91,36.16-7.33,6-1.2,7.8-.31,11.22,5.26Zm-323,107.29a56.56,56.56,0,0,1-102.86,44.89c-7.8-13.26-9.71-27.43-6.38-42.39.22-1-.06-2.71-.71-3.11-2.81-1.71-5.86-3.07-9-4.64l-3.72,6.51,9.67,6.36c-1.08,2.56-2.11,5-3.2,7.54l-11.33-2.2c-.69,2.61-1.28,4.84-1.88,7.15l11,3.72c-.43,2.94-.8,5.52-1.17,8.07l-11.56.79c0,1.09,0,1.86,0,2.64.12,5.56-.89,4.79,4.76,5.06,2.24.11,4.48.28,6.83.42.39,2.82.74,5.41,1.11,8.12l-10.93,3.69c.64,2.47,1.25,4.79,1.88,7.2l11.36-2.27,3.12,7.59L425.37,215l3.8,6.45,10.31-5.13,5,6.49-7.2,8.18c1.71,2,3.3,3.8,4.94,5.69l8.57-7.58,6.48,5c-1.76,3.55-3.43,6.93-5.13,10.38l6.5,3.67,6.33-9.61,7.57,3.12c-.74,3.84-1.46,7.55-2.2,11.37l7.17,1.86,3.69-10.9,8.09,1c.27,3.87.53,7.57.79,11.35h7.44c.25-3.87.5-7.57.75-11.37l8.11-1,3.69,10.91L517.3,253c-.8-3.94-1.55-7.57-2.31-11.3l7.61-3.15L529,248.2l6.45-3.78-5.14-10.36,6.56-4.95,8.26,7.32,5.59-5.06-7.61-8.55,5-6.5,10.39,5.12c1.33-2.31,2.49-4.34,3.69-6.45l-9.64-6.41,3.2-7.55,11.32,2.3c.64-2.5,1.24-4.82,1.86-7.22L558,192.43c.37-2.81.72-5.4,1.08-8.13l11.37-.69v-7.45l-11.39-.76c-.35-2.71-.68-5.31-1-8.09l11-3.74-2-7.12-11.3,2.22-3.11-7.54,9.62-6.43-3.76-6.44Z"/><path class="cls-4" d="M493.76,185.46c-19.44-26.37-38.7-52.46-58.37-79.13,39,10.06,77.48,10.17,116.8-.12Z"/><path class="cls-4" d="M305.2,107.85c-1.07,5.19-2.49,10.13-3,15.16s-.12,10-.12,15.22c-.63-.24-1.33-.43-2-.73L170.62,75.25c-4-1.94-5.75-4.48-5.09-7.35.9-3.84,4.31-5.55,8.57-4.14,12,4,23.87,8,35.79,12l92.83,31.17C303.63,107.25,304.53,107.6,305.2,107.85Z"/><path class="cls-4" d="M685.15,138.56c1.61-10.77.19-20.7-3.14-30.63l8.29-2.81,121.93-41c.28-.1.57-.16.85-.25,4.16-1.35,7.18-.37,8.57,2.77s-.06,6.35-4.09,8.3c-9.73,4.73-19.5,9.39-29.25,14.08L688,137.25C687.24,137.63,686.44,138,685.15,138.56Z"/><path class="cls-5" d="M548.05,143.5l10.39-5.24,3.76,6.44-9.62,6.43,3.11,7.54,11.3-2.22,2,7.12-11,3.74c.36,2.78.69,5.38,1,8.09l11.39.76v7.45l-11.37.69c-.36,2.73-.71,5.32-1.08,8.13l10.92,3.68c-.62,2.4-1.22,4.72-1.86,7.22L555.74,201l-3.2,7.55,9.64,6.41c-1.2,2.11-2.36,4.14-3.69,6.45l-10.39-5.12-5,6.5,7.61,8.55-5.59,5.06-8.26-7.32-6.56,4.95,5.14,10.36L529,248.2l-6.37-9.66L515,241.69c.76,3.73,1.51,7.36,2.31,11.3l-7.22,1.94L506.39,244l-8.11,1c-.25,3.8-.5,7.5-.75,11.37h-7.44c-.26-3.78-.52-7.48-.79-11.35l-8.09-1-3.69,10.9L470.35,253c.74-3.82,1.46-7.53,2.2-11.37L465,238.55l-6.33,9.61-6.5-3.67c1.7-3.45,3.37-6.83,5.13-10.38l-6.48-5-8.57,7.58c-1.64-1.89-3.23-3.71-4.94-5.69l7.2-8.18-5-6.49-10.31,5.13-3.8-6.45,9.66-6.35-3.12-7.59-11.36,2.27c-.63-2.41-1.24-4.73-1.88-7.2l10.93-3.69c-.37-2.71-.72-5.3-1.11-8.12-2.35-.14-4.59-.31-6.83-.42-5.65-.27-4.64.5-4.76-5.06,0-.78,0-1.55,0-2.64l11.56-.79c.37-2.55.74-5.13,1.17-8.07l-11-3.72c.6-2.31,1.19-4.54,1.88-7.15l11.33,2.2c1.09-2.56,2.12-5,3.2-7.54l-9.67-6.36,3.72-6.51c3.13,1.57,6.18,2.93,9,4.64.65.4.93,2.14.71,3.11-3.33,15-1.42,29.13,6.38,42.39A56.55,56.55,0,0,0,548.05,143.5Z"/></svg>